#!OML:ASF H:\Terrain\Patient Classification 1\Walking\liu\liu.ASF
:FULLY-SPECIFIED
:DEGREES
173
root 8.37128 16.9058 -1.09527 4.02382 3.27961 -2.23477
lowerback -5.2718 -1.0945 -0.908547
upperback -1.07944 -1.49189 3.91333
thorax 1.9726 -0.759433 4.45215
lowerneck -21.1258 -3.10267 -12.0644
upperneck 16.0424 -2.48895 9.32709
head 8.755 -0.922748 4.8601
rclavicle 1.1427e-014 -1.51076e-014
rhumerus -41.9563 -0.218561 -78.1766
rradius 19.9347
rwrist -4.17983
rhand -30.3013 -22.589
rfingers 7.12502
rthumb -3.60843 -52.5382
lclavicle 1.1427e-014 -1.51076e-014
lhumerus -31.8433 -15.6255 95.854
lradius 33.5049
lwrist 4.65926
lhand -16.4146 -28.2042
lfingers 7.12502
lthumb 9.80016 1.54778
rfemur -15.4663 -0.271843 28.4806
rtibia 29.0365
rfoot -14.3659 5.45246
rtoes -9.20143
lfemur -20.4392 10.5447 -16.6516
ltibia 71.009
lfoot -9.58563 15.6622
ltoes -11.4682
174
root 8.34255 16.9012 -0.975478 4.53374 3.06292 -3.32716
lowerback -5.22471 -0.833191 0.0162426
upperback -1.30548 -1.18862 4.12548
thorax 1.67353 -0.597537 4.17177
lowerneck -20.94 -3.2477 -11.981
upperneck 15.9024 -2.70604 9.21157
head 8.69788 -1.03404 4.77078
rclavicle -1.3991e-014 4.6118e-014
rhumerus -41.1231 -0.391188 -78.0721
rradius 19.96
rwrist -1.93249
rhand -29.0661 -24.4379
rfingers 7.12502
rthumb -2.41553 -54.404
lclavicle -1.3991e-014 4.6118e-014
lhumerus -32.5927 -15.4925 95.8037
lradius 33.2841
lwrist 4.47404
lhand -15.7608 -27.582
lfingers 7.12502
lthumb 10.4309 2.13928
rfemur -15.401 1.23911 29.922
rtibia 28.5888
rfoot -14.6882 4.01232
rtoes -9.39555
lfemur -23.3453 10.8525 -15.6926
ltibia 71.3557
lfoot -9.55661 14.9629
ltoes -8.59377
175
root 8.32892 16.8951 -0.830041 4.87691 2.74078 -3.66743
lowerback -5.24325 -0.621163 0.268994
upperback -1.4185 -0.915618 4.15122
thorax 1.54399 -0.457862 4.07396
lowerneck -20.7794 -3.32194 -12.031
upperneck 15.5953 -2.80627 9.25553
head 8.57889 -1.07938 4.77278
rclavicle 4.71104e-015 -4.29375e-014
rhumerus -40.1985 -0.144067 -78.1602
rradius 20.0569
rwrist -0.885276
rhand -27.2316 -24.1062
rfingers 7.12502
rthumb -0.643813 -54.0849
lclavicle 4.71104e-015 -4.29375e-014
lhumerus -33.3571 -15.171 95.6863
lradius 33.1002
lwrist 4.06492
lhand -15.6162 -27.5185
lfingers 7.12502
lthumb 10.5704 2.19568
rfemur -15.1148 2.0167 30.4946
rtibia 28.3673
rfoot -15.0788 3.13464
rtoes -10.8431
lfemur -25.6883 11.0547 -15.6466
ltibia 71.3479
lfoot -10.2029 14.6562
ltoes -6.27002
176
root 8.33206 16.8848 -0.669404 5.17021 2.478 -3.55948
lowerback -5.21547 -0.454135 0.201852
upperback -1.59063 -0.680391 4.05875
thorax 1.33448 -0.336878 4.03147
lowerneck -20.304 -3.31884 -12.412
upperneck 15.057 -2.80338 9.67313
head 8.32687 -1.06198 4.96907
rclavicle -1.30794e-014 8.82604e-014
rhumerus -39.516 0.489149 -78.531
rradius 20.4001
rwrist -0.789594
rhand -23.9321 -27.2278
rfingers 7.12502
rthumb 2.54297 -57.1924
lclavicle -1.30794e-014 8.82604e-014
lhumerus -34.398 -15.297 95.8636
lradius 32.8454
lwrist 4.12301
lhand -16.5704 -28.3759
lfingers 7.12502
lthumb 9.64984 1.3831
rfemur -14.7521 1.89736 30.5154
rtibia 28.2174
rfoot -15.601 2.87926
rtoes -13.168
lfemur -27.6679 10.9817 -16.2649
ltibia 71.143
lfoot -10.5465 14.6291
ltoes -4.47428
177
root 8.34281 16.8812 -0.499211 5.45759 2.10777 -3.43582
lowerback -5.29543 -0.176303 0.304439
upperback -1.7019 -0.309486 3.84669
thorax 1.23735 -0.149465 3.77583
lowerneck -20.0035 -3.35096 -12.6482
upperneck 14.6814 -2.87466 10.0718
head 8.16791 -1.07192 5.12914
rclavicle 5.5054e-015 -9.54166e-015
rhumerus -38.8485 1.04074 -78.9731
rradius 20.6512
rwrist -0.693582
rhand -23.8597 -25.6092
rfingers 7.12502
rthumb 2.61282 -55.573
lclavicle 5.5054e-015 -9.54166e-015
lhumerus -35.5488 -16.4874 96.3531
lradius 32.665
lwrist 5.34691
lhand -17.2215 -28.4022
lfingers 7.12502
lthumb 9.02157 1.3849
rfemur -14.4093 1.62353 30.4302
rtibia 28.1944
rfoot -16.0082 3.09019
rtoes -14.152
lfemur -29.3282 10.8852 -16.9889
ltibia 70.5417
lfoot -10.3177 14.8036
ltoes -4.60371
178
root 8.35089 16.8884 -0.326389 5.61408 1.68413 -3.49476
lowerback -5.2696 0.0996969 0.576699
upperback -1.77602 0.0503629 3.68958
thorax 1.12429 0.0316317 3.48048
lowerneck -20.1046 -3.43714 -12.6593
upperneck 14.7618 -2.99772 10.1534
head 8.22926 -1.12113 5.14617
rclavicle 3.4601e-015 -2.54444e-014
rhumerus -38.3357 2.3426 -79.6933
rradius 21.0733
rwrist -1.00649
rhand -25.7798 -25.1884
rfingers 7.12502
rthumb 0.75846 -55.1668
lclavicle 3.4601e-015 -2.54444e-014
lhumerus -36.645 -16.4762 96.4217
lradius 32.4862
lwrist 5.31716
lhand -15.4852 -26.7149
lfingers 7.12502
lthumb 10.6967 2.99283
rfemur -13.8291 1.65989 30.5095
rtibia 28.1404
rfoot -16.5337 3.4261
rtoes -12.8155
lfemur -30.7668 10.7571 -17.3903
ltibia 69.6628
lfoot -10.8087 14.8417
ltoes -7.67108
179
root 8.35661 16.8857 -0.160301 5.55215 1.37078 -3.55373
lowerback -4.89371 0.228809 0.629754
upperback -1.8203 0.231815 3.71372
thorax 0.858849 0.124251 3.48335
lowerneck -20.318 -3.47447 -12.574
upperneck 15.0236 -2.9798 9.74322
head 8.3434 -1.14712 4.99655
rclavicle -6.42944e-016 2.06736e-014
rhumerus -37.9347 4.56408 -80.6813
rradius 21.7976
rwrist -1.88954
rhand -25.8158 -25.8804
rfingers 7.12502
rthumb 0.723608 -55.8589
lclavicle -6.42944e-016 2.06736e-014
lhumerus -37.5156 -14.834 95.971
lradius 32.2918
lwrist 4.15216
lhand -11.4978 -23.833
lfingers 7.12502
lthumb 14.5409 5.63734
rfemur -12.9718 1.77165 30.6298
rtibia 27.9888
rfoot -17.1191 3.5726
rtoes -11.0808
lfemur -32.0171 10.6874 -17.6604
ltibia 68.6389
lfoot -11.5605 14.6169
ltoes -4.61574
